<svg id="b7cd1100-3099-447a-bf81-00bd36f78e4d" data-name="Layer 1" xmlns="http://www.w3.org/2000/svg" xmlns:xlink="http://www.w3.org/1999/xlink" viewBox="0 0 100 100"><defs><style>.a268a5dc-fcd0-4889-b16d-782c38904555,.b48904f2-2660-4587-8b38-d795a6b6f2e5{fill:none;}.b60a9db7-df26-4fb8-8d0e-ab30baa26947{fill:#00a0c3;}.b874b5e3-a75e-4feb-bfcf-d0df22c66a28{opacity:0.77;}.bdd06313-edff-422d-8bcd-a9688a539fe2{clip-path:url(#e6592fa9-cb12-4d54-81f9-df32bb2849b8);}.b48904f2-2660-4587-8b38-d795a6b6f2e5{stroke:#fff;stroke-miterlimit:10;}.af1c8c65-b0e3-4d25-936f-04e910a847fd{fill:#fff;}.b47b7e82-8c2e-4e32-8e8c-e62013c6aca1{fill:#15d1a5;}.a4d30a65-93da-4dec-9b19-2e29127d2f9b{fill:#e6e2e2;}.f88c279d-4ea7-4c42-8660-499d0f490963{fill:#231f20;}.b6083eb9-fddd-4731-b985-171a23f4784a{fill:#393a3a;}.b52fd2e9-c582-4415-99f5-13a5ee75e09f{fill:#f2fffc;}.b564e69c-e975-4f7b-8b70-f3ad472d8ac3{fill:#d0d0d0;}.fc946a1a-6a6a-4cb7-944d-151e0dea6059{opacity:0.34;}.a680b2e9-287f-4aaf-90d7-ec47de9fef93{clip-path:url(#eb27ca45-e64b-49c1-88e6-be9cbeff5f7c);}</style><clipPath id="e6592fa9-cb12-4d54-81f9-df32bb2849b8"><circle class="a268a5dc-fcd0-4889-b16d-782c38904555" cx="59.73041" cy="43.97717" r="37.30335"/></clipPath><clipPath id="eb27ca45-e64b-49c1-88e6-be9cbeff5f7c"><circle class="a268a5dc-fcd0-4889-b16d-782c38904555" cx="50.27872" cy="167.21535" r="45.21535"/></clipPath></defs><circle class="b60a9db7-df26-4fb8-8d0e-ab30baa26947" cx="55.81782" cy="43.30335" r="37.30335"/><g class="b874b5e3-a75e-4feb-bfcf-d0df22c66a28"><g class="bdd06313-edff-422d-8bcd-a9688a539fe2"><line class="b48904f2-2660-4587-8b38-d795a6b6f2e5" x1="95.40501" y1="1.25221" x2="1.75124" y2="45.85085"/><line class="b48904f2-2660-4587-8b38-d795a6b6f2e5" x1="95.40501" y1="9.9324" x2="1.75124" y2="54.53104"/><line class="b48904f2-2660-4587-8b38-d795a6b6f2e5" x1="102.6864" y1="18.61259" x2="9.03263" y2="63.21124"/><line class="b48904f2-2660-4587-8b38-d795a6b6f2e5" x1="102.6864" y1="27.29279" x2="9.03263" y2="71.89143"/><line class="b48904f2-2660-4587-8b38-d795a6b6f2e5" x1="108.87819" y1="35.97298" x2="15.22443" y2="80.57162"/><line class="b48904f2-2660-4587-8b38-d795a6b6f2e5" x1="116.7603" y1="44.65317" x2="23.10653" y2="89.25182"/><rect class="af1c8c65-b0e3-4d25-936f-04e910a847fd" x="10.70943" y="-4.71992" width="57.00664" height="23.33251" transform="translate(0.68253 17.01179) rotate(-24.68593)"/><rect class="af1c8c65-b0e3-4d25-936f-04e910a847fd" x="50.84557" y="72.88617" width="57.00664" height="23.33251" transform="translate(-28.06117 40.86676) rotate(-24.68593)"/></g></g><circle class="b47b7e82-8c2e-4e32-8e8c-e62013c6aca1" cx="28.87689" cy="69.91921" r="25.12236"/><g id="b4304e58-b547-4973-8450-0a2cc0e8b48f" data-name="laptop"><path class="a4d30a65-93da-4dec-9b19-2e29127d2f9b" d="M15.45806,67.49686H79.61379a0,0,0,0,1,0,0v6.21727a.61458.61458,0,0,1-.61458.61458H16.07264a.61458.61458,0,0,1-.61458-.61458V67.49686A0,0,0,0,1,15.45806,67.49686Z"/><path class="f88c279d-4ea7-4c42-8660-499d0f490963" d="M16.07264,25.18346H78.99921a.61458.61458,0,0,1,.61458.61458V67.49686a0,0,0,0,1,0,0H15.45806a0,0,0,0,1,0,0V25.798A.61458.61458,0,0,1,16.07264,25.18346Z"/><path class="b6083eb9-fddd-4731-b985-171a23f4784a" d="M20.10582,28.26881H74.966a.638.638,0,0,1,.638.638V64.41151a0,0,0,0,1,0,0H19.46779a0,0,0,0,1,0,0V28.90683A.638.638,0,0,1,20.10582,28.26881Z"/><path class="b52fd2e9-c582-4415-99f5-13a5ee75e09f" d="M20.10582,28.26881H74.966a.638.638,0,0,1,.638.638V64.41151a0,0,0,0,1,0,0H19.46779a0,0,0,0,1,0,0V28.90683A.638.638,0,0,1,20.10582,28.26881Z"/><polygon class="b564e69c-e975-4f7b-8b70-f3ad472d8ac3" points="47.536 82.703 55.91 82.703 55.176 74.329 47.536 74.329 39.896 74.329 39.161 82.703 47.536 82.703"/><rect class="a4d30a65-93da-4dec-9b19-2e29127d2f9b" x="34.53337" y="82.70324" width="26.00511" height="1.17537"/></g><g class="fc946a1a-6a6a-4cb7-944d-151e0dea6059"><g class="a680b2e9-287f-4aaf-90d7-ec47de9fef93"><rect class="b47b7e82-8c2e-4e32-8e8c-e62013c6aca1" x="-9.13956" y="108.18967" width="69.09767" height="28.28131" transform="translate(-48.76838 21.7917) rotate(-24.68593)"/></g></g></svg>