<svg id="a3a8af96-500d-49b0-a6b8-f06de313d1c5" data-name="Layer 1" xmlns="http://www.w3.org/2000/svg" viewBox="0 0 100 100"><defs><style>.ab37a5a7-1e87-4299-abf0-86bf8873cf43{fill:#fde155;}.f1456040-ff34-412b-b55b-71d7bafa06f3{fill:#15d1a5;}.faf13ff7-2223-4c2c-a794-bb11ae7b34c7{fill:#00a0c3;}.e3f4b356-b010-41fa-acef-21839882d359{fill:#f2fffc;}</style></defs><circle class="ab37a5a7-1e87-4299-abf0-86bf8873cf43" cx="58.86218" cy="45.7174" r="38.13782"/><rect class="f1456040-ff34-412b-b55b-71d7bafa06f3" x="7.23247" y="30.97172" width="72.00635" height="56.25496"/><path class="faf13ff7-2223-4c2c-a794-bb11ae7b34c7" d="M59.54958,87.22669v-17.439a16.31394,16.31394,0,0,0-32.62788,0v17.439Z"/><rect class="faf13ff7-2223-4c2c-a794-bb11ae7b34c7" x="65.89836" y="59.0992" width="6.7506" height="14.62629" rx="3" transform="translate(138.54731 132.8247) rotate(180)"/><rect class="faf13ff7-2223-4c2c-a794-bb11ae7b34c7" x="14.14379" y="59.0992" width="6.7506" height="14.62629" rx="3" transform="translate(35.03818 132.8247) rotate(180)"/><polygon class="faf13ff7-2223-4c2c-a794-bb11ae7b34c7" points="79.239 87.227 90.651 79.351 90.651 24.221 78.274 28.722 79.239 87.227"/><polygon class="f1456040-ff34-412b-b55b-71d7bafa06f3" points="9.466 28.722 23.542 24.221 90.651 24.221 78.274 28.722 9.466 28.722"/><rect class="faf13ff7-2223-4c2c-a794-bb11ae7b34c7" x="4.98227" y="28.72152" width="76.50675" height="21.37689" rx="3.98529"/><path class="f1456040-ff34-412b-b55b-71d7bafa06f3" d="M77.00542,51.22351H9.466a5.61524,5.61524,0,0,1-5.609-5.609v-12.409a5.61524,5.61524,0,0,1,5.609-5.609H77.00542a5.61512,5.61512,0,0,1,5.60846,5.609V45.61449A5.61512,5.61512,0,0,1,77.00542,51.22351ZM9.466,29.84662a3.36282,3.36282,0,0,0-3.35882,3.35882V45.61449A3.36282,3.36282,0,0,0,9.466,48.97331H77.00542a3.36234,3.36234,0,0,0,3.35826-3.35882v-12.409a3.36234,3.36234,0,0,0-3.35826-3.35882Z"/><rect class="f1456040-ff34-412b-b55b-71d7bafa06f3" x="30.297" y="24.22113" width="25.87728" height="27.00238"/><circle class="faf13ff7-2223-4c2c-a794-bb11ae7b34c7" cx="43.23564" cy="41.09761" r="9.00079"/><circle class="e3f4b356-b010-41fa-acef-21839882d359" cx="43.23564" cy="41.09761" r="5.6255"/><circle class="ab37a5a7-1e87-4299-abf0-86bf8873cf43" cx="43.23564" cy="41.09761" r="3.3753"/><path class="faf13ff7-2223-4c2c-a794-bb11ae7b34c7" d="M57.86193,29.84662v0c0-4.34962-2.00748-7.87568-4.48385-7.87568H33.0932c-2.47636,0-4.48385,3.52606-4.48385,7.87568v0"/><path class="ab37a5a7-1e87-4299-abf0-86bf8873cf43" d="M80.09765,87.22669a4.492,4.492,0,1,0-7.35894-4.26582,3.26307,3.26307,0,0,0-2.42971,0,4.49946,4.49946,0,0,0-8.82129,0,3.34693,3.34693,0,0,0-4.38345,4.26582Z"/><path class="ab37a5a7-1e87-4299-abf0-86bf8873cf43" d="M29.46819,87.22669a4.492,4.492,0,1,0-7.35895-4.26582,3.26307,3.26307,0,0,0-2.42971,0,4.49945,4.49945,0,0,0-8.82128,0,3.34695,3.34695,0,0,0-4.38346,4.26582Z"/><path class="f1456040-ff34-412b-b55b-71d7bafa06f3" d="M85.48816,66.31291a1.12515,1.12515,0,0,1-1.1251-1.1251V53.47371a1.1251,1.1251,0,0,1,2.2502,0v11.7141A1.12515,1.12515,0,0,1,85.48816,66.31291Z"/><path class="f1456040-ff34-412b-b55b-71d7bafa06f3" d="M80.5252,50.099a1.12552,1.12552,0,0,1-.42906-2.16615l9.4293-3.88291V26.81907l-10.95488,2.988a1.12521,1.12521,0,0,1-.59222-2.17109l12.37609-3.3753a1.125,1.125,0,0,1,1.42121,1.08554V44.80363a1.12547,1.12547,0,0,1-.69659,1.0405l-10.1259,4.16968A1.12177,1.12177,0,0,1,80.5252,50.099Z"/></svg>