<svg id="a14a2a91-d412-4db4-ad6c-25abecc00613" data-name="Layer 1" xmlns="http://www.w3.org/2000/svg" xmlns:xlink="http://www.w3.org/1999/xlink" viewBox="0 0 100 100"><defs><style>.a891fa5e-e790-4224-8c61-295e57b5c987,.b5bd6f60-619b-444f-8805-c488e48d4b89,.f2318285-0523-4830-ac01-9a34f13ce0fb{fill:none;}.b3e0c41b-b5f5-4578-89f7-8d61a84368b1{fill:#00a0c3;}.abe37288-ce2c-4c52-aa02-4b9db834ada2{fill:#fde155;}.a77225f6-9ad7-4178-b28b-37e023279b8e{opacity:0.34;}.ba2e5010-49d8-4595-b3bd-13c32bcbd694{clip-path:url(#ebae8221-946f-4090-95ea-f37847a67f26);}.b5bd6f60-619b-444f-8805-c488e48d4b89{stroke:#15d1a5;}.b5bd6f60-619b-444f-8805-c488e48d4b89,.f2318285-0523-4830-ac01-9a34f13ce0fb{stroke-miterlimit:10;}.a00063f7-9e6e-4d07-8ad6-b3fc5aa877f9{fill:#15d1a5;}.a834bf68-7648-4858-a04f-88543833da08{fill:#f2fffc;}.f2318285-0523-4830-ac01-9a34f13ce0fb{stroke:#231f20;stroke-width:0.5px;stroke-dasharray:2 2;}.f62df1c0-53b4-4850-a201-2fa3f1a0fcc1{fill:#231f20;}.a3ef772e-67be-40e3-ab68-1351e925d8cb{fill:#00aeda;}.a5db5df7-67f0-4ec3-977d-ed6c491addad,.ac551bf4-e11a-4be1-9d9b-5bed83d98fd7{fill:#fff;}.e1e08b41-35b3-48c8-8d52-11e59d2fa576{fill:url(#bb1573d8-cc3c-45e2-9ee7-bd4ff4d8a5b5);}.aeb16c34-c845-4127-88a5-b3a023ec8eaf{fill:#0e73ba;}.b0e8b119-6359-45db-adda-9e15fda1eb72{fill:#e63154;}.a5db5df7-67f0-4ec3-977d-ed6c491addad,.b0e8b119-6359-45db-adda-9e15fda1eb72,.f6c9c2f7-aa43-4d39-8df1-8dfade0c5934{fill-rule:evenodd;}.f6c9c2f7-aa43-4d39-8df1-8dfade0c5934{fill:#13b5be;}.be965adc-c959-43fb-83fe-c71b91335c38{fill:#00a04e;}.accc965d-bce5-43e5-83af-f9aa3dd81baf{fill:#e63231;}.fe86c0ed-298a-4cb9-bd52-e625dde4ed91{opacity:0.72;}.f5668665-4742-4b34-ac55-109ef8112c39{fill:url(#a693f5a9-0a4a-4ec8-846b-beee33a4997b);}.e1293d6a-50d8-4c77-9f25-c411940a9642{fill:#e7411c;}.a6e45127-abb8-42f2-9340-1355cccb3d97{fill:#336c9f;}</style><clipPath id="ebae8221-946f-4090-95ea-f37847a67f26"><circle class="a891fa5e-e790-4224-8c61-295e57b5c987" cx="50.27872" cy="47.21535" r="45.21535"/></clipPath><linearGradient id="bb1573d8-cc3c-45e2-9ee7-bd4ff4d8a5b5" x1="48.73502" y1="9.43814" x2="62.91068" y2="21.41085" gradientTransform="translate(27.38408 15.81005)" gradientUnits="userSpaceOnUse"><stop offset="0.0011" stop-color="#fcdb85"/><stop offset="0.20936" stop-color="#f6b346"/><stop offset="0.37646" stop-color="#e85472"/><stop offset="0.52382" stop-color="#e2398c"/><stop offset="0.73944" stop-color="#7f4697"/><stop offset="1" stop-color="#4d53a1"/></linearGradient><radialGradient id="a693f5a9-0a4a-4ec8-846b-beee33a4997b" cx="56.05815" cy="56.46022" r="6.62234" gradientUnits="userSpaceOnUse"><stop offset="0" stop-color="#ea5b2e"/><stop offset="1" stop-color="#fffaf7"/></radialGradient></defs><circle class="b3e0c41b-b5f5-4578-89f7-8d61a84368b1" cx="71.85036" cy="77.17769" r="20.45619"/><circle class="abe37288-ce2c-4c52-aa02-4b9db834ada2" cx="52.10967" cy="48.55277" r="42.4809"/><g class="a77225f6-9ad7-4178-b28b-37e023279b8e"><g class="ba2e5010-49d8-4595-b3bd-13c32bcbd694"><line class="b5bd6f60-619b-444f-8805-c488e48d4b89" x1="93.51984" y1="-4.57153" x2="-19.99776" y2="49.48643"/><line class="b5bd6f60-619b-444f-8805-c488e48d4b89" x1="93.51984" y1="5.94972" x2="-19.99776" y2="60.00768"/><line class="b5bd6f60-619b-444f-8805-c488e48d4b89" x1="102.34561" y1="16.47097" x2="-11.172" y2="70.52893"/><line class="b5bd6f60-619b-444f-8805-c488e48d4b89" x1="102.34561" y1="26.99223" x2="-11.172" y2="81.05018"/><line class="b5bd6f60-619b-444f-8805-c488e48d4b89" x1="109.85067" y1="37.51348" x2="-3.66693" y2="91.57143"/><line class="b5bd6f60-619b-444f-8805-c488e48d4b89" x1="119.40456" y1="48.03473" x2="5.88696" y2="102.09268"/><rect class="a00063f7-9e6e-4d07-8ad6-b3fc5aa877f9" x="-9.13956" y="-11.81033" width="69.09767" height="28.28131" transform="translate(1.34889 10.825) rotate(-24.68593)"/><rect class="a00063f7-9e6e-4d07-8ad6-b3fc5aa877f9" x="39.50941" y="82.25591" width="69.09767" height="28.28131" transform="translate(-33.49131 39.73958) rotate(-24.68593)"/></g></g><path class="a834bf68-7648-4858-a04f-88543833da08" d="M52.10952,39.37918a9.17359,9.17359,0,1,0,9.17359,9.17359A9.18386,9.18386,0,0,0,52.10952,39.37918Zm7.87994,8.54049H56.53858A13.38535,13.38535,0,0,0,54.767,41.106,7.9238,7.9238,0,0,1,59.98946,47.91967Zm-7.87994,8.54055c-1.43172,0-3.01856-2.95653-3.16161-7.27441h6.32356C55.12838,53.50369,53.54159,56.46022,52.10952,56.46022Zm-3.16161-8.54055c.14305-4.31782,1.72989-7.27435,3.16161-7.27435,1.43207,0,3.01886,2.95653,3.16195,7.27435ZM49.4524,41.106a13.38575,13.38575,0,0,0-1.77159,6.81365H44.23A7.92358,7.92358,0,0,1,49.4524,41.106ZM44.23,49.18581h3.45083a13.38576,13.38576,0,0,0,1.77159,6.81366A7.92355,7.92355,0,0,1,44.23,49.18581Zm10.537,6.81366a13.38536,13.38536,0,0,0,1.7716-6.81366h3.45088A7.92376,7.92376,0,0,1,54.767,55.99947Z"/><line class="f2318285-0523-4830-ac01-9a34f13ce0fb" x1="52.10952" y1="57.72636" x2="52.10952" y2="72.51006"/><path class="f62df1c0-53b4-4850-a201-2fa3f1a0fcc1" d="M50.22964,72.41606a1.87989,1.87989,0,1,0,1.87988-1.87987A1.88008,1.88008,0,0,0,50.22964,72.41606Z"/><line class="f2318285-0523-4830-ac01-9a34f13ce0fb" x1="60.05416" y1="53.13969" x2="72.85722" y2="60.53154"/><path class="f62df1c0-53b4-4850-a201-2fa3f1a0fcc1" d="M71.83587,62.11256a1.87988,1.87988,0,1,0-.68807-2.568A1.88005,1.88005,0,0,0,71.83587,62.11256Z"/><line class="f2318285-0523-4830-ac01-9a34f13ce0fb" x1="60.0543" y1="43.96609" x2="72.85736" y2="36.57425"/><path class="f62df1c0-53b4-4850-a201-2fa3f1a0fcc1" d="M73.7159,38.24927a1.87988,1.87988,0,1,0-2.568-.6881A1.88008,1.88008,0,0,0,73.7159,38.24927Z"/><line class="f2318285-0523-4830-ac01-9a34f13ce0fb" x1="52.10981" y1="39.37918" x2="52.10981" y2="24.59547"/><path class="f62df1c0-53b4-4850-a201-2fa3f1a0fcc1" d="M53.9897,24.68947a1.87989,1.87989,0,1,0-1.87989,1.87987A1.88008,1.88008,0,0,0,53.9897,24.68947Z"/><line class="f2318285-0523-4830-ac01-9a34f13ce0fb" x1="44.16518" y1="43.96585" x2="31.36212" y2="36.57399"/><path class="f62df1c0-53b4-4850-a201-2fa3f1a0fcc1" d="M32.38346,34.993a1.87988,1.87988,0,1,0,.68807,2.568A1.88007,1.88007,0,0,0,32.38346,34.993Z"/><line class="f2318285-0523-4830-ac01-9a34f13ce0fb" x1="44.16504" y1="53.13943" x2="31.36198" y2="60.53128"/><path class="f62df1c0-53b4-4850-a201-2fa3f1a0fcc1" d="M30.50344,58.85626a1.87989,1.87989,0,1,0,2.56795.6881A1.88007,1.88007,0,0,0,30.50344,58.85626Z"/><circle class="a3ef772e-67be-40e3-ab68-1351e925d8cb" cx="52.10952" cy="13.1611" r="7.08923"/><path class="ac551bf4-e11a-4be1-9d9b-5bed83d98fd7" d="M56.02637,10.732a3.19049,3.19049,0,0,1-.7819.223c.12579-.02116.31041-.24877.3845-.34086a1.43357,1.43357,0,0,0,.25951-.47326c.00678-.01347.01179-.03046-.00172-.04068a.04455.04455,0,0,0-.04143.00349,3.99021,3.99021,0,0,1-.92709.35473.06211.06211,0,0,1-.064-.01695.74559.74559,0,0,0-.081-.08283,1.63947,1.63947,0,0,0-.44913-.27519,1.5634,1.5634,0,0,0-.68874-.11092,1.64725,1.64725,0,0,0-.65347.18458,1.68406,1.68406,0,0,0-.52712.43054,1.61835,1.61835,0,0,0-.31481.63055,1.70789,1.70789,0,0,0-.01671.66573c.005.03719.00172.04224-.032.03719a4.95147,4.95147,0,0,1-3.1856-1.62143c-.03719-.0424-.05735-.0424-.08784.0032a1.6153,1.6153,0,0,0,.27538,1.90864c.06244.05915.12663.11833.19576.17227a1.62407,1.62407,0,0,1-.61472-.17227c-.03715-.02348-.05586-.01006-.05915.03214a.97125.97125,0,0,0,.0101.18253A1.63366,1.63366,0,0,0,49.632,13.72837a.94951.94951,0,0,0,.20425.06243,1.82073,1.82073,0,0,1-.60293.01868c-.04388-.00842-.06068.0135-.04388.0557a1.69575,1.69575,0,0,0,1.2667,1.06077c.05743.01.11489.01.17248.02348l-.01022.01022a2.00686,2.00686,0,0,1-.8651.45852,3.0986,3.0986,0,0,1-1.31383.16814c-.07069-.01037-.08552-.00957-.10463,0-.01944.012-.00249.02886.0202.04717.0896.05915.18076.11156.27365.16222a4.33622,4.33622,0,0,0,.87824.35136,4.67777,4.67777,0,0,0,4.54135-1.0619,4.76534,4.76534,0,0,0,1.25685-3.47661c0-.05.05907-.07754.09409-.10391a3.07132,3.07132,0,0,0,.61805-.64273.19516.19516,0,0,0,.04091-.12314V10.732C56.05815,10.71164,56.05783,10.71773,56.02637,10.732Z"/><circle class="e1e08b41-35b3-48c8-8d52-11e59d2fa576" cx="82.75968" cy="30.85681" r="7.08923"/><path class="ac551bf4-e11a-4be1-9d9b-5bed83d98fd7" d="M84.96025,28.17492a.48731.48731,0,1,0,.48728.48729A.48731.48731,0,0,0,84.96025,28.17492Z"/><path class="ac551bf4-e11a-4be1-9d9b-5bed83d98fd7" d="M82.79378,28.79986a2.047,2.047,0,1,0,2.047,2.047A2.04934,2.04934,0,0,0,82.79378,28.79986Zm0,3.35824A1.31123,1.31123,0,1,1,84.105,30.84687,1.31272,1.31272,0,0,1,82.79378,32.1581Z"/><path class="ac551bf4-e11a-4be1-9d9b-5bed83d98fd7" d="M84.41886,35.00292H81.10034a2.49954,2.49954,0,0,1-2.49671-2.49671V29.18753a2.49949,2.49949,0,0,1,2.49671-2.49671h3.31852a2.4996,2.4996,0,0,1,2.49687,2.49671v3.31868A2.49965,2.49965,0,0,1,84.41886,35.00292ZM81.10034,27.4728a1.7166,1.7166,0,0,0-1.71476,1.71473v3.31868A1.71665,1.71665,0,0,0,81.10034,34.221h3.31852a1.71672,1.71672,0,0,0,1.71484-1.71476V29.18753a1.71667,1.71667,0,0,0-1.71484-1.71473Z"/><path class="aeb16c34-c845-4127-88a5-b3a023ec8eaf" d="M79.21523,72.38794a7.08923,7.08923,0,1,0-1.96638-10.60028L81.539,64.26457l.9-1.55885,1.7747,1.02463-.9,1.55884,1.3526.78092a2.50168,2.50168,0,0,1,1.04978,3.698,10.90283,10.90283,0,0,1-.91339,1.30513l-1.51088-.87231.447-.77421a1.02462,1.02462,0,0,0-.38112-1.55408L82.206,67.20774l-.98309,1.70277-1.61753-1.29685.82592-1.43054-4.29013-2.47691A7.09093,7.09093,0,0,0,79.21523,72.38794Z"/><path class="ac551bf4-e11a-4be1-9d9b-5bed83d98fd7" d="M79.60539,67.61366l1.61753,1.29685.98309-1.70277,1.15166.66491a1.02462,1.02462,0,0,1,.38112,1.55408l-.447.77421,1.51088.87231a10.90283,10.90283,0,0,0,.91339-1.30513,2.50168,2.50168,0,0,0-1.04978-3.698l-1.3526-.78092.9-1.55884L82.439,62.70572l-.9,1.55885-4.29014-2.47691a7.16324,7.16324,0,0,0-1.10767,1.91855l4.29013,2.47691Z"/><path class="aeb16c34-c845-4127-88a5-b3a023ec8eaf" d="M90.10189,66.26A7.08923,7.08923,0,1,0,81.905,73.26307V68.30925h-1.8V66.26h1.8V64.69815A2.50168,2.50168,0,0,1,84.58264,61.94a10.90351,10.90351,0,0,1,1.587.13845v1.74462h-.894a1.02461,1.02461,0,0,0-1.1553,1.10709V66.26H86.0865l-.31434,2.04926H84.12032v4.95382A7.09094,7.09094,0,0,0,90.10189,66.26Z"/><path class="ac551bf4-e11a-4be1-9d9b-5bed83d98fd7" d="M85.77216,68.30925,86.0865,66.26H84.12032V64.93017a1.02461,1.02461,0,0,1,1.1553-1.10709h.894V62.07846a10.90351,10.90351,0,0,0-1.587-.13845A2.50168,2.50168,0,0,0,81.905,64.69815V66.26h-1.8v2.04926h1.8v4.95382a7.16411,7.16411,0,0,0,2.21536,0V68.30925Z"/><circle cx="52.10981" cy="83.94444" r="7.08923"/><path class="b0e8b119-6359-45db-adda-9e15fda1eb72" d="M53.97188,82.72445a3.49538,3.49538,0,0,0,2.0388.65207V81.91426a2.06359,2.06359,0,0,1-.42814-.04476v1.151a3.49584,3.49584,0,0,1-2.0388-.6521v2.984a2.70494,2.70494,0,0,1-4.20958,2.24565,2.70456,2.70456,0,0,0,4.63776-1.88968V82.72445ZM54.5,81.24921a2.03793,2.03793,0,0,1-.52816-1.19318V79.868h-.40574A2.04743,2.04743,0,0,0,54.5,81.24921Zm-4.22128,5.20335a1.23726,1.23726,0,0,1,1.35991-1.92683V83.03081a2.73483,2.73483,0,0,0-.428-.0246v1.16356a1.23669,1.23669,0,0,0-.93189,2.28279Z"/><path class="a5db5df7-67f0-4ec3-977d-ed6c491addad" d="M53.54374,82.36841a3.49584,3.49584,0,0,0,2.0388.6521v-1.151a3.22639,3.22639,0,0,1-2.0164-2.00153H52.5004v5.84032a1.74888,1.74888,0,1,1-1.28979-1.53852V83.00621a2.53133,2.53133,0,1,0,2.33313,2.34623Z"/><path class="f6c9c2f7-aa43-4d39-8df1-8dfade0c5934" d="M55.58254,81.8695v-.31129a2.03867,2.03867,0,0,1-1.0825-.309A2.04493,2.04493,0,0,0,55.58254,81.8695ZM53.56614,79.868q-.01459-.08349-.0224-.1679V79.512H52.07218v5.8404a1.2375,1.2375,0,0,1-1.79346,1.10016,1.23721,1.23721,0,0,0,2.22168-.74427V79.868Zm-2.35549,3.13824v-.33133a2.70306,2.70306,0,0,0-1.87645,4.92317,2.7025,2.7025,0,0,1,1.87645-4.59184Z"/><circle class="be965adc-c959-43fb-83fe-c71b91335c38" cx="21.45967" cy="66.24872" r="7.0892" transform="translate(-47.35434 76.92785) rotate(-80.87279)"/><path class="ac551bf4-e11a-4be1-9d9b-5bed83d98fd7" d="M17.62945,70.2604l.59112-2.20534a4.08127,4.08127,0,1,1,1.6256,1.6115Zm2.32692-1.42027.13957.08327a3.31349,3.31349,0,1,0-1.1335-1.12332l.08563.14061-.33,1.23124Z"/><path class="a5db5df7-67f0-4ec3-977d-ed6c491addad" d="M23.29653,66.65419a.68458.68458,0,0,0-.58314-.13136c-.15148.06195-.24817.29911-.34631.42017a.14522.14522,0,0,1-.18786.04071,2.64094,2.64094,0,0,1-1.31808-1.1291.16168.16168,0,0,1,.02039-.22076.891.891,0,0,0,.23944-.38879.8503.8503,0,0,0-.107-.46011,1.09162,1.09162,0,0,0-.33975-.512.46557.46557,0,0,0-.50552.07518,1.02606,1.02606,0,0,0-.35572.813,1.152,1.152,0,0,0,.032.258,2.13706,2.13706,0,0,0,.2475.57036,4.50793,4.50793,0,0,0,.25839.393A3.98939,3.98939,0,0,0,21.47149,67.423a3.39209,3.39209,0,0,0,.69887.33233,1.55336,1.55336,0,0,0,.81348.12851.9849.9849,0,0,0,.73766-.54872.477.477,0,0,0,.03423-.28C23.71365,66.86217,23.45253,66.74752,23.29653,66.65419Z"/><circle class="accc965d-bce5-43e5-83af-f9aa3dd81baf" cx="21.45951" cy="30.85706" r="7.08923"/><path class="ac551bf4-e11a-4be1-9d9b-5bed83d98fd7" d="M25.25494,29.84421a1.70234,1.70234,0,0,0-1.7023-1.70234h-4.353a1.70233,1.70233,0,0,0-1.7023,1.70234V31.8699a1.70227,1.70227,0,0,0,1.7023,1.7023h4.353a1.70228,1.70228,0,0,0,1.7023-1.7023ZM22.695,31.00885l-1.952.96572c-.07654.0414-.33654-.014-.33654-.101V29.89122c0-.08816.26212-.14346.3387-.09982L22.61365,30.808C22.692,30.85257,22.77423,30.96594,22.695,31.00885Z"/><g class="fe86c0ed-298a-4cb9-bd52-e625dde4ed91"><circle class="f5668665-4742-4b34-ac55-109ef8112c39" cx="56.05815" cy="56.46022" r="6.62234"/><circle class="e1293d6a-50d8-4c77-9f25-c411940a9642" cx="56.05815" cy="56.46022" r="0.83945"/></g><path class="a6e45127-abb8-42f2-9340-1355cccb3d97" d="M60.477,66.4302v-.5445l.56983-.96237V61.40942a.5635.5635,0,0,0-.56349-.5635h0c-.3112,0-.56349.15732-.56349.46853h0v-.6458a.51917.51917,0,0,0-.51917-.51918H59.16a.51917.51917,0,0,0-.51918.51918l-.01266.31656.01266-.63313a.77243.77243,0,0,0-.77243-.77243h-.06331a.77243.77243,0,0,0-.77243.77243v.39254l-.08789-3.67649a.66528.66528,0,0,0-.66508-.64936h0a.66527.66527,0,0,0-.66526.66527v5.73728L54.03108,61.7704a.82592.82592,0,0,0-1.04074.10413h0a.82591.82591,0,0,0,.00821,1.17612l2.6159,2.54381v.83574Z"/></svg>