<svg id="a67fcf4a-bc04-4ed9-9416-0be807020f80" data-name="Layer 1" xmlns="http://www.w3.org/2000/svg" viewBox="0 0 100 100"><defs><style>.e8df2d66-c989-4869-8757-7722b85e743b{fill:#15d1a5;}.b8863731-6e65-4dfc-b07c-9f107d1c533c{fill:#f2fffc;}.bea9e7d7-8f3b-4ce3-8010-e7b499191d3d{fill:#00a0c3;}.be158125-a134-4a12-a472-7dc163f74763{fill:#fde155;}</style></defs><rect class="e8df2d66-c989-4869-8757-7722b85e743b" x="11.76199" y="7.31616" width="63.25992" height="78.48916"/><rect class="b8863731-6e65-4dfc-b07c-9f107d1c533c" x="17.61939" y="11.53349" width="63.25992" height="78.48916"/><rect class="bea9e7d7-8f3b-4ce3-8010-e7b499191d3d" x="25.72451" y="80.34746" width="51.57742" height="2.63583"/><rect class="bea9e7d7-8f3b-4ce3-8010-e7b499191d3d" x="25.72451" y="73.31858" width="51.57742" height="2.63583"/><rect class="bea9e7d7-8f3b-4ce3-8010-e7b499191d3d" x="25.72451" y="66.2897" width="51.57742" height="2.63583"/><rect class="bea9e7d7-8f3b-4ce3-8010-e7b499191d3d" x="25.72451" y="59.26082" width="51.57742" height="2.63583"/><rect class="bea9e7d7-8f3b-4ce3-8010-e7b499191d3d" x="25.72451" y="52.23194" width="51.57742" height="2.63583"/><rect class="bea9e7d7-8f3b-4ce3-8010-e7b499191d3d" x="25.72451" y="45.20306" width="51.57742" height="2.63583"/><rect class="bea9e7d7-8f3b-4ce3-8010-e7b499191d3d" x="25.72451" y="38.17418" width="51.57742" height="2.63583"/><rect class="bea9e7d7-8f3b-4ce3-8010-e7b499191d3d" x="25.72451" y="31.1453" width="51.57742" height="2.63583"/><rect class="bea9e7d7-8f3b-4ce3-8010-e7b499191d3d" x="25.72451" y="24.11642" width="51.57742" height="2.63583"/><path class="be158125-a134-4a12-a472-7dc163f74763" d="M87.62773,16.78815h0a1.87437,1.87437,0,0,1,1.87437,1.87437V30.02588a1.87436,1.87436,0,0,1-1.87436,1.87436h0a1.87437,1.87437,0,0,1-1.87437-1.87437V18.66252a1.87437,1.87437,0,0,1,1.87437-1.87437Z" transform="translate(11.34891 -25.18156) rotate(17.46854)"/><rect class="e8df2d66-c989-4869-8757-7722b85e743b" x="74.22557" y="22.75312" width="6.0917" height="69.00017" transform="translate(20.75001 -20.5551) rotate(17.46855)"/><path class="be158125-a134-4a12-a472-7dc163f74763" d="M72.89328,57.69348h0a4.21733,4.21733,0,0,1,4.21733,4.21733V80.4202a4.21732,4.21732,0,0,1-4.21732,4.21732h0A4.21732,4.21732,0,0,1,68.676,80.4202V61.91081a4.21732,4.21732,0,0,1,4.21732-4.21732Z" transform="translate(24.72433 -18.59925) rotate(17.46855)"/><path class="bea9e7d7-8f3b-4ce3-8010-e7b499191d3d" d="M64.00973,89.24791,63.90352,98.651a.339.339,0,0,0,.61908.19483l5.29789-7.76933S67.18394,88.52745,64.00973,89.24791Z"/><path class="e8df2d66-c989-4869-8757-7722b85e743b" d="M85.1535,54.26857l-.23072-.07261a1.2299,1.2299,0,0,1-.80162-1.53783l6.5475-20.80584s-.2721-1.37911-2.01141-.633l1.87582-5.96075s4.29317,1.7729,2.70577,7.40255L86.69133,53.467A1.22984,1.22984,0,0,1,85.1535,54.26857Z"/><circle class="e8df2d66-c989-4869-8757-7722b85e743b" cx="20.97994" cy="27.52502" r="2.00521"/><circle class="e8df2d66-c989-4869-8757-7722b85e743b" cx="20.97994" cy="50.68871" r="2.00521"/><circle class="e8df2d66-c989-4869-8757-7722b85e743b" cx="20.97994" cy="74.63649" r="2.00521"/></svg>