<svg id="b5a9af6b-a5d3-462b-935c-026fdd9d377c" data-name="Layer 1" xmlns="http://www.w3.org/2000/svg" viewBox="0 0 100 100"><defs><style>.bd9d2176-993c-4ad4-a581-29617a0c7ed4{fill:#15d1a5;}.b36cb878-3fe6-423a-a8f0-3af78a4f8cb0{fill:#2c3129;}.aed2264d-02e4-4823-8017-9ae633064eb9{fill:#00a0c3;}.a9b142bb-f0fa-43d0-9f48-83c07ad36991{fill:#fadcac;}.bd31304e-d611-4d9c-a5f7-193ee32d64d6,.ec954db3-0e45-49eb-815a-bbb977cde9ab{fill:#f2fffc;}.f461f792-ae81-4b7d-8ad3-6eea6eb19740{fill:#fde155;}.ec954db3-0e45-49eb-815a-bbb977cde9ab{opacity:0.51;}</style></defs><path class="bd9d2176-993c-4ad4-a581-29617a0c7ed4" d="M29.45163,28.24045H91.50105a3.73305,3.73305,0,0,1,3.73305,3.73305V76.1648a3.73305,3.73305,0,0,1-3.73305,3.73305H13.006a3.733,3.733,0,0,1-3.733-3.733V48.41912A20.17867,20.17867,0,0,1,29.45163,28.24045Z"/><path class="b36cb878-3fe6-423a-a8f0-3af78a4f8cb0" d="M45.65763,28.24045l3.4585-5.45379a6.07046,6.07046,0,0,1,5.12655-2.81947H71.314a6.07044,6.07044,0,0,1,5.3286,3.16247l2.78912,5.11079Z"/><polygon class="aed2264d-02e4-4823-8017-9ae633064eb9" points="49.693 26.737 53.686 21.47 71.96 21.47 75.396 26.737 49.693 26.737"/><rect class="aed2264d-02e4-4823-8017-9ae633064eb9" x="22.76745" y="24.10382" width="15.33579" height="4.13663" rx="2.06831"/><rect class="bd9d2176-993c-4ad4-a581-29617a0c7ed4" x="3.82472" y="28.24045" width="22.39833" height="51.6574" rx="11.19915"/><ellipse class="b36cb878-3fe6-423a-a8f0-3af78a4f8cb0" cx="15.02388" cy="30.66972" rx="6.18112" ry="2.42927"/><path class="a9b142bb-f0fa-43d0-9f48-83c07ad36991" d="M3.82472,41.1548s8.475,4.64109,22.39832,0l-.11737,29.07027s-8.74754,6.67194-22.17321,0Z"/><circle class="bd31304e-d611-4d9c-a5f7-193ee32d64d6" cx="63.0239" cy="54.32138" r="26.53495"/><circle class="b36cb878-3fe6-423a-a8f0-3af78a4f8cb0" cx="63.0239" cy="54.32138" r="20.93059"/><circle class="bd9d2176-993c-4ad4-a581-29617a0c7ed4" cx="63.0239" cy="54.32138" r="14.98266"/><circle class="aed2264d-02e4-4823-8017-9ae633064eb9" cx="63.0239" cy="54.32138" r="9.53442"/><circle class="f461f792-ae81-4b7d-8ad3-6eea6eb19740" cx="63.0239" cy="54.32138" r="4.28797"/><path class="ec954db3-0e45-49eb-815a-bbb977cde9ab" d="M75.396,37.4638,50.46838,71.04666S33.08379,59.11382,46.754,41.1548C46.754,41.1548,58.73593,23.19578,75.396,37.4638Z"/><rect class="aed2264d-02e4-4823-8017-9ae633064eb9" x="26.22304" y="74.04604" width="12.91435" height="3.63216"/></svg>