<svg id="f03017b5-f69c-4e88-8772-420457da3476" data-name="Layer 1" xmlns="http://www.w3.org/2000/svg" viewBox="0 0 100 100"><defs><style>.b5e638f0-dfd4-44ca-a500-399afb4c0fe9{fill:#fde155;}.b32a4cbf-72d9-4985-8943-60d43f5cd482{fill:#00a0c3;}.b30740b2-ccae-483c-a37e-1b552a69e7b9{fill:#f2fffc;}.b05d4d9a-1558-4cc6-8081-a96c76251433{fill:#15d1a5;}.a437a48f-d9e0-4a63-833f-53e239134035{fill:#f6f6f6;}</style></defs><ellipse class="b5e638f0-dfd4-44ca-a500-399afb4c0fe9" cx="49.5" cy="50" rx="38.5" ry="39"/><path class="b32a4cbf-72d9-4985-8943-60d43f5cd482" d="M21.02688,38.806a1.77473,1.77473,0,0,1-1.57028-2.59673A33.81872,33.81872,0,0,1,31.80519,23.02644,1.77376,1.77376,0,0,1,33.65257,26.055,30.261,30.261,0,0,0,22.59946,37.85456,1.77332,1.77332,0,0,1,21.02688,38.806Z"/><path class="b32a4cbf-72d9-4985-8943-60d43f5cd482" d="M78.17676,39.89476a1.77327,1.77327,0,0,1-1.6026-1.0126,30.19668,30.19668,0,0,0-11.239-12.62454,1.77378,1.77378,0,0,1,1.88663-3.0043A33.74279,33.74279,0,0,1,79.77706,37.35923a1.77437,1.77437,0,0,1-1.6003,2.53553Z"/><path class="b32a4cbf-72d9-4985-8943-60d43f5cd482" d="M67.11211,80.10243a1.77355,1.77355,0,0,1-.99066-3.24562A30.27336,30.27336,0,0,0,76.72773,64.41412,1.77331,1.77331,0,0,1,79.9491,65.8978,33.83464,33.83464,0,0,1,68.10046,79.80108,1.76814,1.76814,0,0,1,67.11211,80.10243Z"/><path class="b32a4cbf-72d9-4985-8943-60d43f5cd482" d="M33.56482,81.35172a1.76,1.76,0,0,1-.8752-.23265A33.83786,33.83786,0,0,1,20.22327,68.79992a1.77363,1.77363,0,0,1,3.062-1.7908,30.293,30.293,0,0,0,11.157,11.02713,1.7737,1.7737,0,0,1-.87751,3.31547Z"/><path class="b32a4cbf-72d9-4985-8943-60d43f5cd482" d="M93,49.32925V53.8475H88.71881a5.66867,5.66867,0,0,1-.30679.80883l3.10979,3.10978-3.19346,3.19346L85.358,57.98923a6.38362,6.38362,0,0,1-1.40846.62754v3.821H79.43129v-3.821a7.73023,7.73023,0,0,1-1.21323-.516l-2.85878,2.85877-3.19345-3.19346,2.9006-2.91455A7.9437,7.9437,0,0,1,74.662,53.8475H70.68763V49.32925H74.662a7.20173,7.20173,0,0,1,.4602-1.11562l-2.95639-2.95639,3.19345-3.2074,2.95639,2.97033A6.47891,6.47891,0,0,1,79.43129,44.56V40.58559h4.51826V44.56a7.26217,7.26217,0,0,1,1.31085.55781l3.06795-3.06795,3.19346,3.2074-3.15163,3.15162a6.59611,6.59611,0,0,1,.34863.92039Zm-.90644,3.61181V50.23569H89.38819v2.70537Zm-1.85472-7.68382L88.32835,43.3328l-1.92444,1.92444,1.92444,1.9105Zm0,12.50887-1.91049-1.92444-1.92444,1.92444,1.92444,1.9105Zm-7.1539.1534a6.48453,6.48453,0,1,0-2.789,0Zm-.04183,3.61181V58.83989a6.62993,6.62993,0,0,1-2.70538,0v2.69143Zm0-17.33392V41.492H80.33773V44.1974Zm-7.68383,2.97034,1.92445-1.9105L75.35928,43.3328l-1.91049,1.92444Zm0,12.50887,1.92445-1.9105-1.92445-1.92444-1.91049,1.92444Zm-1.05983-6.73555V50.23569H71.59407v2.70537Z"/><rect class="b5e638f0-dfd4-44ca-a500-399afb4c0fe9" x="89.38819" y="50.23569" width="2.70537" height="2.70537"/><polygon class="b5e638f0-dfd4-44ca-a500-399afb4c0fe9" points="88.328 43.333 90.239 45.257 88.328 47.168 86.404 45.257 88.328 43.333"/><polygon class="b5e638f0-dfd4-44ca-a500-399afb4c0fe9" points="88.328 55.842 90.239 57.766 88.328 59.677 86.404 57.766 88.328 55.842"/><path class="b5e638f0-dfd4-44ca-a500-399afb4c0fe9" d="M88.175,51.58837a6.48851,6.48851,0,0,1-5.09,6.33114h-2.789a6.48379,6.48379,0,1,1,7.879-6.33114Zm-2.10573,0a4.37184,4.37184,0,1,0-4.3788,4.36486A4.38628,4.38628,0,0,0,86.06922,51.58837Z"/><path class="b32a4cbf-72d9-4985-8943-60d43f5cd482" d="M81.69042,47.20957a4.37184,4.37184,0,1,1-4.36486,4.3788A4.38628,4.38628,0,0,1,81.69042,47.20957Zm3.47236,4.3788a3.4654,3.4654,0,1,0-3.47236,3.45842A3.48167,3.48167,0,0,0,85.16278,51.58837Z"/><path class="b30740b2-ccae-483c-a37e-1b552a69e7b9" d="M81.69042,48.116A3.4654,3.4654,0,1,1,78.232,51.58837,3.48167,3.48167,0,0,1,81.69042,48.116Z"/><path class="b5e638f0-dfd4-44ca-a500-399afb4c0fe9" d="M83.04311,58.83989v2.69143H80.33773V58.83989a6.62993,6.62993,0,0,0,2.70538,0Z"/><rect class="b5e638f0-dfd4-44ca-a500-399afb4c0fe9" x="80.33773" y="41.49203" width="2.70537" height="2.70537"/><polygon class="b5e638f0-dfd4-44ca-a500-399afb4c0fe9" points="77.284 45.257 75.359 47.168 73.449 45.257 75.359 43.333 77.284 45.257"/><polygon class="b5e638f0-dfd4-44ca-a500-399afb4c0fe9" points="77.284 57.766 75.359 59.677 73.449 57.766 75.359 55.842 77.284 57.766"/><rect class="b5e638f0-dfd4-44ca-a500-399afb4c0fe9" x="71.59407" y="50.23569" width="2.70537" height="2.70537"/><path class="b30740b2-ccae-483c-a37e-1b552a69e7b9" d="M15.77556,47.01244a2.21516,2.21516,0,0,1-2.211-2.21095V42.9216a2.21516,2.21516,0,0,1,2.211-2.21095h3.77161a2.21517,2.21517,0,0,1,2.211,2.21095v1.87989a2.21516,2.21516,0,0,1-2.211,2.21095Zm-.61481-3.09769a.55012.55012,0,0,0,.54387.54387h3.91349a.54.54,0,0,0,.532-.54387.52983.52983,0,0,0-.532-.532H15.70462A.54.54,0,0,0,15.16075,43.91475Z"/><path class="b30740b2-ccae-483c-a37e-1b552a69e7b9" d="M12.4414,61.73237a3.67476,3.67476,0,0,1-3.5115-3.80708v-8.9029a3.66725,3.66725,0,0,1,3.5115-3.80708h.07094a3.29248,3.29248,0,0,0,3.26322,2.86122h3.77161a3.28065,3.28065,0,0,0,3.25139-2.86122h.08276a3.675,3.675,0,0,1,3.51151,3.80708v8.9029a3.68259,3.68259,0,0,1-3.51151,3.80708Zm-1.54884-3.38144a.52982.52982,0,0,0,.532.532H23.89812a.52983.52983,0,0,0,.53205-.532.54.54,0,0,0-.53205-.54387H11.4246A.54.54,0,0,0,10.89256,58.35093Zm0-8.01616a.52983.52983,0,0,0,.532.532H23.89812a.52984.52984,0,0,0,.53205-.532.54.54,0,0,0-.53205-.54387H11.4246A.54.54,0,0,0,10.89256,50.33477Zm0,2.672a.52983.52983,0,0,0,.532.53205H23.89812a.52984.52984,0,0,0,.53205-.53205.54.54,0,0,0-.53205-.54387H11.4246A.54.54,0,0,0,10.89256,53.00682Zm0,2.67205a.52983.52983,0,0,0,.532.532H23.89812a.52984.52984,0,0,0,.53205-.532.54.54,0,0,0-.53205-.54386H11.4246A.54.54,0,0,0,10.89256,55.67887Z"/><path class="b5e638f0-dfd4-44ca-a500-399afb4c0fe9" d="M23.89812,57.80706a.54.54,0,0,1,.53205.54387.52983.52983,0,0,1-.53205.532H11.4246a.52982.52982,0,0,1-.532-.532.54.54,0,0,1,.532-.54387Z"/><path class="b05d4d9a-1558-4cc6-8081-a96c76251433" d="M23.89812,49.7909a.54.54,0,0,1,.53205.54387.52984.52984,0,0,1-.53205.532H11.4246a.52983.52983,0,0,1-.532-.532.54.54,0,0,1,.532-.54387Z"/><path class="b5e638f0-dfd4-44ca-a500-399afb4c0fe9" d="M23.89812,52.463a.54.54,0,0,1,.53205.54387.52984.52984,0,0,1-.53205.53205H11.4246a.52983.52983,0,0,1-.532-.53205.54.54,0,0,1,.532-.54387Z"/><path class="b05d4d9a-1558-4cc6-8081-a96c76251433" d="M23.89812,55.135a.54.54,0,0,1,.53205.54386.52984.52984,0,0,1-.53205.532H11.4246a.52983.52983,0,0,1-.532-.532.54.54,0,0,1,.532-.54386Z"/><path class="b32a4cbf-72d9-4985-8943-60d43f5cd482" d="M22.82221,44.15122v.65027c0,.14188-.01183.28376-.02365.41382h-.52022V44.15122Z"/><path class="b05d4d9a-1558-4cc6-8081-a96c76251433" d="M20.15016,43.91475a.54.54,0,0,1-.532.54387H15.70462a.55012.55012,0,0,1-.54387-.54387.54.54,0,0,1,.54387-.532h3.91349A.52983.52983,0,0,1,20.15016,43.91475Z"/><path class="b32a4cbf-72d9-4985-8943-60d43f5cd482" d="M12.4887,42.9216a3.28489,3.28489,0,0,1,3.28686-3.275h3.77161a3.27478,3.27478,0,0,1,3.275,3.275v1.22962h-.54387v1.06409h.52022a3.28065,3.28065,0,0,1-3.25139,2.86122H15.77556a3.29248,3.29248,0,0,1-3.26322-2.86122h.52023V44.15122H12.4887Zm1.07591,1.87989a2.21516,2.21516,0,0,0,2.211,2.21095h3.77161a2.21516,2.21516,0,0,0,2.211-2.21095V42.9216a2.21517,2.21517,0,0,0-2.211-2.21095H15.77556a2.21516,2.21516,0,0,0-2.211,2.21095Z"/><path class="b32a4cbf-72d9-4985-8943-60d43f5cd482" d="M13.03257,44.15122v1.06409h-.52023c-.01182-.13006-.02364-.27194-.02364-.41382v-.65027Z"/><path class="b32a4cbf-72d9-4985-8943-60d43f5cd482" d="M12.4414,45.21531a3.66725,3.66725,0,0,0-3.5115,3.80708v8.9029a3.67476,3.67476,0,0,0,3.5115,3.80708H22.88132a3.68259,3.68259,0,0,0,3.51151-3.80708v-8.9029a3.675,3.675,0,0,0-3.51151-3.80708h-.08276c.01182-.13006.02365-.27194.02365-.41382v-.65027h.05911a4.74008,4.74008,0,0,1,4.5756,4.87117v8.9029a4.74008,4.74008,0,0,1-4.5756,4.87117H12.4414a4.73234,4.73234,0,0,1-4.57559-4.87117v-8.9029a4.73234,4.73234,0,0,1,4.57559-4.87117h.0473v.65027c0,.14188.01182.28376.02364.41382Z"/><polygon class="b32a4cbf-72d9-4985-8943-60d43f5cd482" points="63.033 85.958 63.033 91.326 36.017 91.326 36.017 85.958 47.887 80.236 51.163 80.236 63.033 85.958"/><path class="b30740b2-ccae-483c-a37e-1b552a69e7b9" d="M51.16251,73.9576v6.27814h-3.275V73.9576l-.74486-.31923c-3.22774-1.38331-5.3914-5.285-5.3914-9.73052,0-5.63969,3.48786-10.2271,7.77969-10.2271,4.28,0,7.76787,4.58741,7.76787,10.2271,0,4.44554-2.16365,8.34721-5.39139,9.73052Z"/><path class="b05d4d9a-1558-4cc6-8081-a96c76251433" d="M63.033,91.32594V85.95819L51.16251,80.23574V73.9576l.74487-.31923c3.22774-1.38331,5.39139-5.285,5.39139-9.73052,0-5.63969-3.48785-10.2271-7.76787-10.2271-4.29183,0-7.77969,4.58741-7.77969,10.2271,0,4.44554,2.16366,8.34721,5.3914,9.73052l.74486.31923v6.27814L36.01694,85.95819v5.36775Zm2.45924-6.90477v9.364H33.56953v-9.364L45.44006,78.6869V75.53009C41.72757,73.54379,39.292,68.98,39.292,63.90785c0-6.99936,4.59924-12.68634,10.23892-12.68634S59.758,56.90849,59.758,63.90785c0,5.07217-2.43559,9.63594-6.13627,11.62224V78.6869Z"/><path class="b5e638f0-dfd4-44ca-a500-399afb4c0fe9" d="M57.26331,22.31307V32.97183H41.2038V22.31307l5.97176-2.88477V17.84019a6.56461,6.56461,0,0,1-3.09294-5.84685c0-3.5212,2.31376-6.38217,5.15094-6.38217s5.145,2.861,5.145,6.38217a6.57265,6.57265,0,0,1-3.087,5.84685V19.4283Zm-1.23717,9.42158V23.0863l-5.97176-2.87881V17.04911l.37472-.16059a5.20105,5.20105,0,0,0,2.71227-4.89518c0-2.83718-1.75465-5.145-3.90781-5.145-2.15912,0-3.91377,2.30781-3.91377,5.145a5.201,5.201,0,0,0,2.71228,4.89518l.37472.16059v3.15838L42.435,23.0863v8.64835Z"/><polygon class="b05d4d9a-1558-4cc6-8081-a96c76251433" points="56.026 23.086 56.026 31.735 42.435 31.735 42.435 23.086 48.407 20.207 50.054 20.207 56.026 23.086"/><path class="b05d4d9a-1558-4cc6-8081-a96c76251433" d="M53.14137,11.99334a5.20105,5.20105,0,0,1-2.71227,4.89518l-.37472.16059v3.15838H48.40679V17.04911l-.37472-.16059a5.201,5.201,0,0,1-2.71228-4.89518c0-2.83718,1.75465-5.145,3.91377-5.145C51.38672,6.84835,53.14137,9.15616,53.14137,11.99334Z"/><path class="b5e638f0-dfd4-44ca-a500-399afb4c0fe9" d="M65.29307,30.64022V35.351H49.23356V30.64022l5.97176-2.88476V26.16735a6.56461,6.56461,0,0,1-3.093-5.84685c0-3.5212,2.31376-6.38217,5.15094-6.38217s5.145,2.861,5.145,6.38217a6.57268,6.57268,0,0,1-3.087,5.84685v1.58811Zm-1.23718,3.47362V31.41346l-5.97176-2.87882V25.37627l.37473-.1606a5.201,5.201,0,0,0,2.71227-4.89517c0-2.83718-1.75465-5.145-3.90782-5.145-2.15911,0-3.91376,2.30782-3.91376,5.145a5.201,5.201,0,0,0,2.71227,4.89517l.37473.1606v3.15837l-5.97176,2.87882v2.70038Z"/><polygon class="a437a48f-d9e0-4a63-833f-53e239134035" points="64.056 31.413 64.056 34.114 50.465 34.114 50.465 31.413 56.437 28.535 58.084 28.535 64.056 31.413"/><path class="b32a4cbf-72d9-4985-8943-60d43f5cd482" d="M61.17113,20.3205a5.201,5.201,0,0,1-2.71227,4.89517l-.37473.1606v3.15837H56.43655V25.37627l-.37473-.1606a5.201,5.201,0,0,1-2.71227-4.89517c0-2.83718,1.75465-5.145,3.91376-5.145C59.41648,15.1755,61.17113,17.48332,61.17113,20.3205Z"/><path class="b5e638f0-dfd4-44ca-a500-399afb4c0fe9" d="M49.23356,30.64022V35.351H33.174V30.64022l5.97176-2.88476V26.16735a6.56463,6.56463,0,0,1-3.09294-5.84685c0-3.5212,2.31376-6.38217,5.15094-6.38217s5.145,2.861,5.145,6.38217a6.57267,6.57267,0,0,1-3.087,5.84685v1.58811Zm-1.23718,3.47362V31.41346l-5.97176-2.87882V25.37627l.37472-.1606a5.201,5.201,0,0,0,2.71227-4.89517c0-2.83718-1.75465-5.145-3.90781-5.145-2.15911,0-3.91376,2.30782-3.91376,5.145a5.201,5.201,0,0,0,2.71227,4.89517l.37472.1606v3.15837l-5.97176,2.87882v2.70038Z"/><polygon class="b32a4cbf-72d9-4985-8943-60d43f5cd482" points="47.996 31.413 47.996 34.114 34.405 34.114 34.405 31.413 40.377 28.535 42.025 28.535 47.996 31.413"/><path class="b30740b2-ccae-483c-a37e-1b552a69e7b9" d="M45.11161,20.3205a5.201,5.201,0,0,1-2.71227,4.89517l-.37472.1606v3.15837H40.377V25.37627l-.37472-.1606A5.201,5.201,0,0,1,37.29,20.3205c0-2.83718,1.75465-5.145,3.91376-5.145C43.357,15.1755,45.11161,17.48332,45.11161,20.3205Z"/><path class="b32a4cbf-72d9-4985-8943-60d43f5cd482" d="M77.88,93.95894H21.15157a1.77349,1.77349,0,0,1,0-3.547H77.88a1.77349,1.77349,0,1,1,0,3.547Z"/></svg>