<svg id="a4067192-7bfe-4b75-ad91-8884dac13dad" data-name="Layer 1" xmlns="http://www.w3.org/2000/svg" viewBox="0 0 100 100"><defs><style>.e022871b-3adf-49d1-bdf9-615e5bcd4874{fill:#fde155;}.b27db19d-406e-407d-87b4-85bdee3dc570{fill:#15d1a5;}.b10a2677-e2e6-48a1-a31f-e889d49c7fcb{fill:#00a0c3;}.fe21d21f-01f2-4cb7-893e-b8387bf8aab9{fill:#f2fffc;}.a9f032d2-7d97-4311-9c2d-aa024737e95f,.ab53ddc7-b3de-4228-bab0-7109c21ca001{fill:none;stroke-miterlimit:10;stroke-width:5px;}.ab53ddc7-b3de-4228-bab0-7109c21ca001{stroke:#00a0c3;}.a9f032d2-7d97-4311-9c2d-aa024737e95f{stroke:#15d1a5;}</style></defs><circle class="e022871b-3adf-49d1-bdf9-615e5bcd4874" cx="64" cy="50" r="16"/><circle class="e022871b-3adf-49d1-bdf9-615e5bcd4874" cx="38" cy="50" r="16"/><path class="b27db19d-406e-407d-87b4-85bdee3dc570" d="M67.48816,61.33484V71.1034H34.18625V61.33484l12.38338-5.982V52.05964c-3.87289-2.07212-6.4137-6.83306-6.4137-12.12436,0-7.30176,4.79794-13.23443,10.68128-13.23443s10.66894,5.93267,10.66894,13.23443c0,5.2913-2.54081,10.05224-6.40137,12.12436v3.29319Zm-2.56548,7.20308V62.93826L52.5393,56.96859V50.41921l.77705-.333c3.36719-1.44308,5.62432-5.51332,5.62432-10.15091,0-5.88334-3.63854-10.66895-8.10346-10.66895-4.47726,0-8.1158,4.78561-8.1158,10.66895,0,4.63759,2.25713,8.70783,5.62432,10.15091l.777.333v6.54938L36.7394,62.93826v5.59966Z"/><polygon class="b10a2677-e2e6-48a1-a31f-e889d49c7fcb" points="64.923 62.938 64.923 68.538 36.739 68.538 36.739 62.938 49.123 56.969 52.539 56.969 64.923 62.938"/><path class="fe21d21f-01f2-4cb7-893e-b8387bf8aab9" d="M58.94067,39.93528c0,4.63759-2.25713,8.70783-5.62432,10.15091l-.77705.333v6.54938H49.12277V50.41921l-.777-.333c-3.36719-1.44308-5.62432-5.51332-5.62432-10.15091,0-5.88334,3.63854-10.66895,8.1158-10.66895C55.30213,29.26633,58.94067,34.05194,58.94067,39.93528Z"/><path class="ab53ddc7-b3de-4228-bab0-7109c21ca001" d="M26.86714,85.70707a43.00551,43.00551,0,0,0,59.29874-60.2214"/><path class="ab53ddc7-b3de-4228-bab0-7109c21ca001" d="M65.26936,9.48317A43.02871,43.02871,0,0,0,10.52991,65.02079"/><polyline class="a9f032d2-7d97-4311-9c2d-aa024737e95f" points="27.961 74.153 16.982 74.153 16.982 85.132"/><polyline class="a9f032d2-7d97-4311-9c2d-aa024737e95f" points="67.484 19.259 78.463 19.259 78.463 8.281"/><rect class="b27db19d-406e-407d-87b4-85bdee3dc570" x="22.4715" y="33.53185" width="6.58726" height="6.58726"/><rect class="b27db19d-406e-407d-87b4-85bdee3dc570" x="34.54814" y="18.16157" width="6.58726" height="6.58726"/><rect class="b27db19d-406e-407d-87b4-85bdee3dc570" x="77.36534" y="42.31486" width="6.58726" height="6.58726"/><rect class="b27db19d-406e-407d-87b4-85bdee3dc570" x="51.0163" y="78.5448" width="6.58726" height="6.58726"/></svg>