<svg id="a58ff4b5-3ad4-459f-9020-e3a53f254b2e" data-name="Layer 1" xmlns="http://www.w3.org/2000/svg" viewBox="0 0 100 100"><defs><style>.b08f9a83-848d-4f22-9070-faa45df0edc9{fill:#fde155;}.ff65b432-14ad-4b2d-9d3f-8c6d02e8d4af{fill:#2c3129;}.a1d0259f-7428-4df6-8578-f1496ef06ca0{fill:#f6f6f6;}.eaa09ab4-95ba-4bc9-8c25-b3b4b398867b{fill:#00a0c3;}.be5be121-14b5-45e7-8068-1da14eecc5f2{fill:#fadcac;}.eaf5ce3c-5647-4da5-956e-bae99c41b8dc{fill:#15d1a5;}.be68a6c4-dc30-43b4-95b6-2c3abf2df91b{fill:#f2fffc;}</style></defs><polygon class="b08f9a83-848d-4f22-9070-faa45df0edc9" points="49.38 4.087 91.942 20.433 91.942 83.106 48.715 66.505 49.38 4.087"/><polygon class="ff65b432-14ad-4b2d-9d3f-8c6d02e8d4af" points="47.348 4.799 90.088 21.213 90.088 83.887 47.348 67.472 47.348 4.799"/><polygon class="a1d0259f-7428-4df6-8578-f1496ef06ca0" points="47.348 9.157 34.062 14.259 74.546 30.048 88.145 24.825 47.348 9.157"/><polygon class="eaa09ab4-95ba-4bc9-8c25-b3b4b398867b" points="57.117 17.867 57.48 4.087 65.204 7.13 64.754 20.106 57.117 17.867"/><polygon class="be5be121-14b5-45e7-8068-1da14eecc5f2" points="66.755 28.588 67.118 14.807 74.842 17.85 74.392 30.826 66.755 28.588"/><polygon class="b08f9a83-848d-4f22-9070-faa45df0edc9" points="35.691 9.039 78.74 25.571 78.432 88.127 35.691 71.712 35.691 9.039"/><polygon class="b08f9a83-848d-4f22-9070-faa45df0edc9" points="33.749 9.903 76.489 26.318 76.489 92.212 33.749 75.798 33.749 9.903"/><polygon class="b08f9a83-848d-4f22-9070-faa45df0edc9" points="49.38 4.087 47.348 4.799 51.724 6.479 49.38 4.087"/><polygon class="b08f9a83-848d-4f22-9070-faa45df0edc9" points="33.749 9.903 35.691 9.039 37.293 11.264 33.749 9.903"/><polygon class="b08f9a83-848d-4f22-9070-faa45df0edc9" points="76.489 26.318 91.942 20.433 91.942 86.327 76.489 92.212 76.489 26.318"/><polygon class="eaf5ce3c-5647-4da5-956e-bae99c41b8dc" points="78.15 27.098 93.603 21.213 93.603 87.108 78.15 92.992 78.15 27.098"/><polygon class="b08f9a83-848d-4f22-9070-faa45df0edc9" points="91.942 20.433 93.603 21.213 91.518 22.007 91.942 20.433"/><polygon class="b08f9a83-848d-4f22-9070-faa45df0edc9" points="78.15 92.992 76.489 92.212 78.15 90.602 78.15 92.992"/><ellipse class="be68a6c4-dc30-43b4-95b6-2c3abf2df91b" cx="86.95495" cy="77.87594" rx="5.03157" ry="4.02526" transform="translate(-20.98741 122.30874) rotate(-64.22104)"/><polygon class="be68a6c4-dc30-43b4-95b6-2c3abf2df91b" points="80.179 32.765 91.942 28.674 92.031 66.384 80.179 70.816 80.179 32.765"/><ellipse class="ff65b432-14ad-4b2d-9d3f-8c6d02e8d4af" cx="86.95495" cy="77.87594" rx="3.84631" ry="3.07705" transform="translate(-20.98741 122.30874) rotate(-64.22104)"/><polygon class="eaa09ab4-95ba-4bc9-8c25-b3b4b398867b" points="24.616 8.537 67.179 24.883 67.179 87.557 23.952 70.955 24.616 8.537"/><polygon class="ff65b432-14ad-4b2d-9d3f-8c6d02e8d4af" points="22.585 9.249 65.325 25.663 65.325 88.337 22.585 71.922 22.585 9.249"/><polygon class="a1d0259f-7428-4df6-8578-f1496ef06ca0" points="22.585 13.607 9.299 18.71 49.783 34.498 63.382 29.276 22.585 13.607"/><polygon class="be5be121-14b5-45e7-8068-1da14eecc5f2" points="29.737 22.699 30.1 8.918 37.824 11.962 37.375 24.937 29.737 22.699"/><polygon class="b08f9a83-848d-4f22-9070-faa45df0edc9" points="39.375 31.809 39.738 18.028 47.462 21.072 47.013 34.047 39.375 31.809"/><polygon class="eaa09ab4-95ba-4bc9-8c25-b3b4b398867b" points="10.928 13.489 53.977 30.022 53.669 92.577 10.928 76.162 10.928 13.489"/><polygon class="eaa09ab4-95ba-4bc9-8c25-b3b4b398867b" points="8.986 14.353 51.726 30.768 51.726 96.662 8.986 80.248 8.986 14.353"/><polygon class="eaa09ab4-95ba-4bc9-8c25-b3b4b398867b" points="24.616 8.537 22.585 9.249 26.96 10.929 24.616 8.537"/><polygon class="eaa09ab4-95ba-4bc9-8c25-b3b4b398867b" points="8.986 14.353 10.928 13.489 12.53 15.714 8.986 14.353"/><polygon class="eaa09ab4-95ba-4bc9-8c25-b3b4b398867b" points="51.726 30.768 67.179 24.883 67.179 90.778 51.726 96.662 51.726 30.768"/><polygon class="eaf5ce3c-5647-4da5-956e-bae99c41b8dc" points="53.387 31.548 68.84 25.663 68.84 91.558 53.387 97.443 53.387 31.548"/><polygon class="eaa09ab4-95ba-4bc9-8c25-b3b4b398867b" points="67.179 24.883 68.84 25.663 66.755 26.457 67.179 24.883"/><polygon class="eaa09ab4-95ba-4bc9-8c25-b3b4b398867b" points="53.387 97.443 51.726 96.662 53.387 95.052 53.387 97.443"/><ellipse class="be68a6c4-dc30-43b4-95b6-2c3abf2df91b" cx="62.16529" cy="82.21042" rx="5.12438" ry="4.09951" transform="translate(-38.89913 102.43559) rotate(-64.22104)"/><polygon class="be68a6c4-dc30-43b4-95b6-2c3abf2df91b" points="55.416 37.215 67.179 33.125 67.268 70.834 55.416 75.267 55.416 37.215"/><ellipse class="ff65b432-14ad-4b2d-9d3f-8c6d02e8d4af" cx="62.16529" cy="82.21042" rx="3.91726" ry="3.13381" transform="translate(-38.89913 102.43559) rotate(-64.22104)"/></svg>