<svg id="e317a28b-d678-47e6-a386-1373bade80f3" data-name="Layer 1" xmlns="http://www.w3.org/2000/svg" xmlns:xlink="http://www.w3.org/1999/xlink" viewBox="0 0 100 100"><defs><style>.b4e42f0d-c713-4857-a7d0-751a1de0ff43,.ee27d45b-dd9d-4668-b4c9-08a5cff2e900,.f545cc3b-0e4d-4e72-8a46-7580ecaaa517,.ffe4f7c2-b680-4d9e-9886-ebe48f764de0{fill:none;}.f5b5fb0c-0094-4df4-b418-d4754047dec1{fill:#00a0c3;}.b0809fd5-9902-4311-be4a-a4b700e5cfe4{fill:#fde155;}.e7a72f02-5b95-4ae7-8670-355b37c993d8{opacity:0.44;}.e7d8fb89-4776-48f9-b754-75cafcd43603{clip-path:url(#b129e9c8-2df8-4b5e-867b-efffd2e83458);}.f545cc3b-0e4d-4e72-8a46-7580ecaaa517{stroke:#393a3a;}.a5da332a-bb3a-4ae0-b99e-67b79a75bb43,.b4e42f0d-c713-4857-a7d0-751a1de0ff43,.f545cc3b-0e4d-4e72-8a46-7580ecaaa517,.ffe4f7c2-b680-4d9e-9886-ebe48f764de0{stroke-miterlimit:10;}.a8ad932e-a127-4d7b-84fb-cd70c77b6bdb{fill:#15d1a5;}.b5c686e4-798d-42e1-af71-cae02f1f728a{opacity:0.72;}.eec40402-291e-4bac-98da-be18fda30a5b{clip-path:url(#a8968af6-31c1-4cc6-96ed-06923d262335);}.b4e42f0d-c713-4857-a7d0-751a1de0ff43{stroke:#fff;}.a1f13374-e730-4d1e-a110-43ac27be507c,.a5da332a-bb3a-4ae0-b99e-67b79a75bb43{fill:#fff;}.fb16bf4a-c4aa-4856-8cf3-a06f1a47d63e{fill:#cdc132;}.fd2ac7bf-2309-4601-a838-5e0b58c32da4{fill:#5f94ce;}.a4f9c27e-6c30-455d-a8c6-d75d19053d74{fill:#91bde5;}.a5da332a-bb3a-4ae0-b99e-67b79a75bb43,.ffe4f7c2-b680-4d9e-9886-ebe48f764de0{stroke:#231f20;stroke-width:2px;}</style><clipPath id="b129e9c8-2df8-4b5e-867b-efffd2e83458"><polygon class="ee27d45b-dd9d-4668-b4c9-08a5cff2e900" points="25.157 96.351 41.795 85.353 40.59 65.446 22.746 56.536 6.109 67.534 7.314 87.441 25.157 96.351"/></clipPath><clipPath id="a8968af6-31c1-4cc6-96ed-06923d262335"><polygon class="ee27d45b-dd9d-4668-b4c9-08a5cff2e900" points="61.622 3.229 55.106 44.913 94.463 29.715 61.622 3.229"/></clipPath></defs><circle class="f5b5fb0c-0094-4df4-b418-d4754047dec1" cx="51.99341" cy="49.77657" r="34.35435"/><g id="ee570a85-8957-4ee0-a925-505e7ecd26eb" data-name="shapes"><polygon class="b0809fd5-9902-4311-be4a-a4b700e5cfe4" points="29.085 89.343 40.672 77.343 36.074 61.307 19.887 57.272 8.3 69.272 12.898 85.308 29.085 89.343"/><g class="e7a72f02-5b95-4ae7-8670-355b37c993d8"><g class="e7d8fb89-4776-48f9-b754-75cafcd43603"><line class="f545cc3b-0e4d-4e72-8a46-7580ecaaa517" x1="20.43106" y1="121.08192" x2="55.28426" y2="61.42724"/><line class="f545cc3b-0e4d-4e72-8a46-7580ecaaa517" x1="15.84399" y1="114.1425" x2="50.69719" y2="54.48782"/><line class="f545cc3b-0e4d-4e72-8a46-7580ecaaa517" x1="11.49578" y1="107.56443" x2="46.34898" y2="47.90975"/><line class="f545cc3b-0e4d-4e72-8a46-7580ecaaa517" x1="6.90871" y1="100.62501" x2="41.76191" y2="40.97033"/><line class="f545cc3b-0e4d-4e72-8a46-7580ecaaa517" x1="2.91838" y1="94.58836" x2="37.77159" y2="34.93368"/><line class="f545cc3b-0e4d-4e72-8a46-7580ecaaa517" x1="-1.66868" y1="87.64894" x2="33.18452" y2="27.99426"/><line class="f545cc3b-0e4d-4e72-8a46-7580ecaaa517" x1="17.95858" y1="117.3415" x2="52.81178" y2="57.68682"/><line class="f545cc3b-0e4d-4e72-8a46-7580ecaaa517" x1="13.37151" y1="110.40208" x2="48.22471" y2="50.7474"/><line class="f545cc3b-0e4d-4e72-8a46-7580ecaaa517" x1="9.0233" y1="103.82401" x2="43.87651" y2="44.16933"/><line class="f545cc3b-0e4d-4e72-8a46-7580ecaaa517" x1="4.43623" y1="96.88459" x2="39.28944" y2="37.22991"/><line class="f545cc3b-0e4d-4e72-8a46-7580ecaaa517" x1="0.44591" y1="90.84794" x2="35.29911" y2="31.19326"/><line class="f545cc3b-0e4d-4e72-8a46-7580ecaaa517" x1="-4.14116" y1="83.90852" x2="30.71204" y2="24.25384"/></g></g><polygon class="a8ad932e-a127-4d7b-84fb-cd70c77b6bdb" points="62.122 4.121 56.685 38.902 89.525 26.221 62.122 4.121"/><g class="b5c686e4-798d-42e1-af71-cae02f1f728a"><g class="eec40402-291e-4bac-98da-be18fda30a5b"><line class="b4e42f0d-c713-4857-a7d0-751a1de0ff43" x1="84.63593" y1="-11.63452" x2="44.07937" y2="32.39857"/><line class="b4e42f0d-c713-4857-a7d0-751a1de0ff43" x1="87.23236" y1="-4.91072" x2="46.6758" y2="39.12236"/><line class="b4e42f0d-c713-4857-a7d0-751a1de0ff43" x1="89.6936" y1="1.46295" x2="49.13704" y2="45.49603"/><line class="b4e42f0d-c713-4857-a7d0-751a1de0ff43" x1="92.29003" y1="8.18674" x2="51.73347" y2="52.21983"/><line class="b4e42f0d-c713-4857-a7d0-751a1de0ff43" x1="94.54869" y1="14.03582" x2="53.99213" y2="58.06891"/><line class="b4e42f0d-c713-4857-a7d0-751a1de0ff43" x1="97.14512" y1="20.75961" x2="56.58856" y2="64.7927"/><line class="b4e42f0d-c713-4857-a7d0-751a1de0ff43" x1="86.03543" y1="-8.01032" x2="45.47887" y2="36.02276"/><line class="b4e42f0d-c713-4857-a7d0-751a1de0ff43" x1="88.63187" y1="-1.28653" x2="48.07531" y2="42.74656"/><line class="b4e42f0d-c713-4857-a7d0-751a1de0ff43" x1="91.0931" y1="5.08714" x2="50.53654" y2="49.12023"/><line class="b4e42f0d-c713-4857-a7d0-751a1de0ff43" x1="93.68954" y1="11.81093" x2="53.13297" y2="55.84402"/><line class="b4e42f0d-c713-4857-a7d0-751a1de0ff43" x1="95.94819" y1="17.66001" x2="55.39163" y2="61.6931"/><line class="b4e42f0d-c713-4857-a7d0-751a1de0ff43" x1="98.54463" y1="24.38381" x2="57.98807" y2="68.41689"/><rect class="a1f13374-e730-4d1e-a110-43ac27be507c" x="52.12105" y="0.34507" width="16.05694" height="6.90621" transform="translate(15.63528 44.42911) rotate(-46.00183)"/></g></g></g><g id="b3698369-7c75-4060-8b3e-cbeadec52c70" data-name="pen"><path class="b0809fd5-9902-4311-be4a-a4b700e5cfe4" d="M49.78589,54.60909c0-.85718.49365-1.592,1.77-1.95764V35.52657H48.74341s-3.33819,20.81916-7.91877,22.57162a.24216.24216,0,0,0-.13178.36613c.87134,1.22707,4.30055,6.40151,4.30055,11.83636h7V56.81661A2.20753,2.20753,0,0,1,49.78589,54.60909Z"/><path class="fb16bf4a-c4aa-4856-8cf3-a06f1a47d63e" d="M54.20092,54.60909c0-.85718-.49365-1.592-1.77-1.95764V35.52657h2.8125s3.33818,20.81916,7.91876,22.57162a.24217.24217,0,0,1,.13179.36613c-.87135,1.22707-4.30055,6.40151-4.30055,11.83636h-7V56.81661A2.20752,2.20752,0,0,0,54.20092,54.60909Z"/><rect class="fd2ac7bf-2309-4601-a838-5e0b58c32da4" x="41.57674" y="70.3007" width="20.83333" height="4.8092" rx="2.4046"/><path class="a4f9c27e-6c30-455d-a8c6-d75d19053d74" d="M45.263,75.1099H58.72385a0,0,0,0,1,0,0v6.73045a6.73044,6.73044,0,0,1-6.73044,6.73044h0A6.73044,6.73044,0,0,1,45.263,81.84035V75.1099A0,0,0,0,1,45.263,75.1099Z"/></g><g id="e77bc0b8-f543-49e3-bac0-5da14c631c62" data-name="NODES"><line class="ffe4f7c2-b680-4d9e-9886-ebe48f764de0" x1="25.07674" y1="28.18649" x2="78.91007" y2="28.18649"/><circle class="a5da332a-bb3a-4ae0-b99e-67b79a75bb43" cx="25.07674" cy="28.18649" r="3.12568"/><circle class="a5da332a-bb3a-4ae0-b99e-67b79a75bb43" cx="78.91007" cy="28.18649" r="3.12568"/><path class="ffe4f7c2-b680-4d9e-9886-ebe48f764de0" d="M78.91007,56.44164q0-.87058-.02544-1.71191c-1.03044-34.28374-52.752-34.28374-53.78245,0q-.02529.84141-.02544,1.71191"/><rect class="a5da332a-bb3a-4ae0-b99e-67b79a75bb43" x="21.52726" y="52.89216" width="7.09896" height="7.09896"/><rect class="a5da332a-bb3a-4ae0-b99e-67b79a75bb43" x="48.44393" y="24.21322" width="7.09896" height="7.09896"/><rect class="a5da332a-bb3a-4ae0-b99e-67b79a75bb43" x="75.36059" y="52.89216" width="7.09896" height="7.09896" transform="translate(157.82014 112.88328) rotate(-180)"/></g></svg>